<svg width="1000" height="1000" viewBox="0 0 1000 1000" fill="none" xmlns="http://www.w3.org/2000/svg">
<g clip-path="url(#paint0_angular_1_2_clip_path)" data-figma-skip-parse="true"><g transform="matrix(-0.8825 0.72 -0.724982 -0.888607 753 243)"><foreignObject x="-933.672" y="-933.672" width="1867.34" height="1867.34"><div xmlns="http://www.w3.org/1999/xhtml" style="background:conic-gradient(from 90deg,rgba(200, 78, 159, 1) 0deg,rgba(213, 82, 163, 1) 12.1154deg,rgba(131, 28, 145, 1) 126.346deg,rgba(70, 44, 125, 1) 233.654deg,rgba(200, 78, 159, 1) 360deg);height:100%;width:100%;opacity:1"></div></foreignObject></g></g><rect width="1000" height="1000" data-figma-gradient-fill="{&#34;type&#34;:&#34;GRADIENT_ANGULAR&#34;,&#34;stops&#34;:[{&#34;color&#34;:{&#34;r&#34;:0.83529412746429443,&#34;g&#34;:0.32156863808631897,&#34;b&#34;:0.63921570777893066,&#34;a&#34;:1.0},&#34;position&#34;:0.033653847873210907},{&#34;color&#34;:{&#34;r&#34;:0.51372551918029785,&#34;g&#34;:0.10980392247438431,&#34;b&#34;:0.56862747669219971,&#34;a&#34;:1.0},&#34;position&#34;:0.35096153616905212},{&#34;color&#34;:{&#34;r&#34;:0.27450981736183167,&#34;g&#34;:0.17254902422428131,&#34;b&#34;:0.49019607901573181,&#34;a&#34;:1.0},&#34;position&#34;:0.64903843402862549}],&#34;stopsVar&#34;:[{&#34;color&#34;:{&#34;r&#34;:0.83529412746429443,&#34;g&#34;:0.32156863808631897,&#34;b&#34;:0.63921570777893066,&#34;a&#34;:1.0},&#34;position&#34;:0.033653847873210907},{&#34;color&#34;:{&#34;r&#34;:0.51372551918029785,&#34;g&#34;:0.10980392247438431,&#34;b&#34;:0.56862747669219971,&#34;a&#34;:1.0},&#34;position&#34;:0.35096153616905212},{&#34;color&#34;:{&#34;r&#34;:0.27450981736183167,&#34;g&#34;:0.17254902422428131,&#34;b&#34;:0.49019607901573181,&#34;a&#34;:1.0},&#34;position&#34;:0.64903843402862549}],&#34;transform&#34;:{&#34;m00&#34;:-1765.0,&#34;m01&#34;:-1449.9649658203125,&#34;m02&#34;:2360.4824218750,&#34;m10&#34;:1439.9998779296875,&#34;m11&#34;:-1777.2142333984375,&#34;m12&#34;:411.6071777343750},&#34;opacity&#34;:1.0,&#34;blendMode&#34;:&#34;NORMAL&#34;,&#34;visible&#34;:true}"/>
<g clip-path="url(#clip0_1_2)">
<mask id="mask0_1_2" style="mask-type:alpha" maskUnits="userSpaceOnUse" x="284" y="381" width="455" height="427">
<path d="M739 808H284V492H491.29L521.711 522.421L552.132 492H739V808ZM592.421 451.711L552.132 492H491.29L451 451.711L521.711 381L592.421 451.711Z" fill="#D9D9D9"/>
</mask>
<g mask="url(#mask0_1_2)">
<path d="M527.5 682.5C512.222 682.5 499.236 677.153 488.542 666.458C477.847 655.764 472.5 642.778 472.5 627.5C472.5 612.222 477.847 599.236 488.542 588.542C499.236 577.847 512.222 572.5 527.5 572.5C542.778 572.5 555.764 577.847 566.458 588.542C577.153 599.236 582.5 612.222 582.5 627.5C582.5 642.778 577.153 655.764 566.458 666.458C555.764 677.153 542.778 682.5 527.5 682.5ZM380.833 746.667C373.271 746.667 366.798 743.973 361.414 738.586C356.027 733.202 353.333 726.729 353.333 719.167V535.833C353.333 528.271 356.027 521.796 361.414 516.409C366.798 511.025 373.271 508.333 380.833 508.333H674.167C681.729 508.333 688.204 511.025 693.591 516.409C698.975 521.796 701.667 528.271 701.667 535.833V719.167C701.667 726.729 698.975 733.202 693.591 738.586C688.204 743.973 681.729 746.667 674.167 746.667H380.833ZM426.667 719.167H628.333C628.333 706.333 632.764 695.486 641.625 686.625C650.486 677.764 661.333 673.333 674.167 673.333V581.667C661.333 581.667 650.486 577.236 641.625 568.375C632.764 559.514 628.333 548.667 628.333 535.833H426.667C426.667 548.667 422.236 559.514 413.375 568.375C404.514 577.236 393.667 581.667 380.833 581.667V673.333C393.667 673.333 404.514 677.764 413.375 686.625C422.236 695.486 426.667 706.333 426.667 719.167ZM646.667 801.667H325.833C318.271 801.667 311.798 798.973 306.414 793.586C301.027 788.202 298.333 781.729 298.333 774.167V563.333H325.833V774.167H646.667V801.667Z" fill="#FFD7ED"/>
</g>
</g>
<path d="M238.794 561.5L209.5 532.206L408.425 333.962L522.194 447.731L686.375 283.55H599.856V242.675H754.5V397.319H714.306V313.525L521.512 506.319L407.744 392.55L238.794 561.5Z" fill="#FFD7ED"/>
<defs>
<clipPath id="paint0_angular_1_2_clip_path"><rect width="1000" height="1000"/></clipPath><clipPath id="clip0_1_2">
<rect width="440" height="440" fill="white" transform="translate(280 435)"/>
</clipPath>
</defs>
</svg>
